<?xml version="1.0" standalone="no"?>
<!DOCTYPE svg PUBLIC "-//W3C//DTD SVG 20010904//EN"
 "http://www.w3.org/TR/2001/REC-SVG-20010904/DTD/svg10.dtd">
<svg version="1.0" xmlns="http://www.w3.org/2000/svg"
 width="900.000000pt" height="900.000000pt" viewBox="0 0 900.000000 900.000000"
 preserveAspectRatio="xMidYMid meet">
<metadata>
Created by potrace 1.10, written by Peter Selinger 2001-2011
</metadata>
<g transform="translate(0.000000,900.000000) scale(0.100000,-0.100000)"
fill="#000000" stroke="none">
<path d="M4345 7371 c-112 -9 -261 -42 -343 -77 -18 -8 -37 -14 -43 -14 -10 0
-193 -89 -234 -113 -154 -92 -323 -247 -431 -392 -74 -100 -73 -99 -132 -220
-94 -190 -133 -322 -153 -518 -18 -175 0 -332 62 -535 10 -34 23 -70 27 -80
45 -92 191 -364 227 -422 12 -19 25 -42 28 -50 4 -8 16 -28 27 -45 10 -16 25
-41 32 -55 14 -26 90 -151 120 -198 9 -15 23 -37 30 -49 7 -12 40 -65 73 -118
33 -52 65 -103 70 -113 6 -9 28 -44 50 -77 22 -33 44 -68 50 -77 16 -28 99
-159 115 -184 16 -23 92 -144 113 -178 7 -11 31 -49 55 -84 23 -35 42 -65 42
-67 0 -1 34 -53 75 -115 41 -62 75 -114 75 -115 0 -10 100 -152 116 -166 11
-9 40 -24 67 -34 45 -17 49 -17 95 0 57 21 94 54 129 115 15 25 56 90 92 145
36 55 70 108 76 117 5 9 30 49 55 89 25 39 50 79 55 88 6 9 28 43 50 76 22 33
44 68 50 77 15 27 128 206 145 232 8 13 35 56 60 95 25 40 53 84 62 99 9 15
23 37 30 49 7 12 63 104 124 205 61 101 114 190 117 198 4 8 16 29 27 45 11
17 24 39 30 50 6 11 19 34 30 50 11 17 26 44 34 60 8 17 28 53 44 80 128 224
175 326 192 427 5 27 12 53 16 59 14 23 23 250 14 375 -11 147 -36 267 -85
404 -19 53 -97 212 -125 255 -11 17 -23 37 -27 45 -35 77 -233 286 -358 378
-113 84 -110 81 -230 140 -146 72 -211 94 -365 126 -88 18 -326 27 -455 17z
m381 -380 c49 -11 111 -27 138 -35 81 -26 258 -116 286 -146 3 -3 34 -28 69
-55 162 -126 304 -350 360 -565 35 -136 39 -428 6 -506 -8 -20 -15 -43 -15
-50 0 -23 -58 -137 -83 -164 -12 -14 -47 -56 -77 -95 -30 -38 -86 -108 -125
-155 -38 -47 -88 -108 -110 -135 -22 -28 -44 -55 -50 -61 -13 -15 -79 -94
-119 -143 -62 -79 -359 -447 -383 -476 -13 -16 -43 -56 -66 -87 -23 -32 -46
-57 -52 -57 -5 0 -26 21 -45 46 -19 26 -40 51 -45 57 -6 6 -29 34 -50 62 -53
68 -238 298 -245 304 -3 3 -24 27 -45 55 -22 27 -75 92 -119 145 -105 128
-103 125 -171 209 -195 240 -306 388 -326 431 -90 195 -90 492 -2 725 49 127
152 290 246 386 154 157 331 254 572 312 94 23 341 22 451 -2z"/>
<path d="M4308 6578 c-31 -43 -76 -137 -95 -202 -25 -81 -29 -316 -7 -391 26
-94 53 -145 75 -145 17 0 133 52 184 83 32 20 80 51 85 57 3 3 23 18 45 35 48
36 75 62 75 73 0 5 -20 23 -45 41 -25 18 -58 45 -74 59 -36 34 -121 150 -121
166 0 7 -5 17 -11 23 -19 19 -46 106 -54 172 -8 70 -21 77 -57 29z"/>
<path d="M4911 6232 c-35 -16 -100 -69 -180 -144 -120 -114 -172 -154 -271
-211 -87 -50 -184 -92 -235 -102 -16 -3 -39 -13 -50 -21 -17 -13 -18 -16 -5
-24 25 -16 252 -12 300 5 48 17 100 20 100 6 0 -18 -114 -109 -174 -138 -119
-58 -177 -71 -323 -72 -46 -1 -83 -4 -83 -7 0 -22 213 -134 255 -134 8 0 29
-6 47 -14 99 -43 327 -58 452 -30 186 42 286 103 397 244 62 80 129 232 129
296 0 24 10 40 43 71 24 22 56 48 70 58 15 9 27 25 27 35 0 14 -13 19 -67 26
-66 9 -67 10 -103 61 -62 90 -120 123 -212 122 -47 0 -77 -7 -117 -27z m216
-154 c46 -43 19 -118 -42 -118 -59 0 -88 77 -45 120 26 26 58 25 87 -2z"/>
<path d="M3621 5920 c-17 -10 -5 -104 15 -121 8 -6 14 -17 14 -23 0 -19 101
-111 155 -142 92 -53 139 -63 280 -64 95 0 143 4 180 17 96 32 179 78 169 94
-3 5 -69 9 -146 9 -143 0 -179 6 -326 51 -34 10 -70 23 -80 28 -9 5 -37 19
-62 31 -75 36 -93 48 -141 89 -29 25 -50 36 -58 31z"/>
<path d="M3130 3020 c-196 -24 -358 -129 -448 -288 -28 -50 -52 -149 -52 -217
0 -182 101 -340 271 -422 97 -47 165 -63 265 -63 88 0 226 28 248 50 6 6 17
10 25 10 9 1 26 9 39 19 20 17 22 28 22 110 0 49 -4 92 -9 95 -8 5 -62 -18
-136 -56 -27 -15 -164 -48 -197 -48 -32 0 -110 24 -153 47 -42 22 -81 67 -110
124 -21 41 -25 62 -25 142 0 133 34 206 131 280 109 82 292 72 433 -26 28 -20
29 -20 43 -1 8 10 16 30 19 44 3 14 12 47 21 74 16 48 16 49 -8 67 -64 48
-240 75 -379 59z"/>
<path d="M3720 2852 l-65 -17 0 -380 0 -380 100 0 100 0 5 110 5 110 124 3
c82 2 128 -1 137 -9 10 -8 14 -40 14 -120 0 -97 2 -109 18 -110 61 -4 176 1
184 9 4 4 7 186 6 403 l-3 394 -102 3 -103 3 0 -200 c0 -130 -4 -202 -11 -206
-8 -5 -182 -9 -256 -6 -10 1 -13 52 -15 204 l-3 202 -35 2 c-19 1 -64 -6 -100
-15z"/>
<path d="M5265 2856 l-50 -11 -3 -300 c-2 -266 -1 -305 15 -340 20 -47 44 -73
91 -98 28 -15 54 -17 170 -15 l137 3 0 70 0 70 -90 5 c-49 3 -96 9 -102 13
-10 6 -13 80 -13 313 l0 304 -52 -1 c-29 0 -75 -6 -103 -13z"/>
<path d="M4660 2666 c-64 -18 -106 -42 -148 -84 -61 -61 -82 -111 -82 -196 0
-123 56 -212 170 -271 51 -26 64 -28 165 -28 106 0 112 1 174 34 49 25 75 48
107 92 49 66 60 114 50 211 -18 179 -233 298 -436 242z m154 -120 c111 -46
128 -225 31 -316 -22 -21 -36 -25 -85 -25 -50 0 -63 4 -87 27 -29 28 -53 94
-53 147 0 37 26 110 48 134 19 21 68 45 95 46 10 1 33 -5 51 -13z"/>
<path d="M5900 2665 c-111 -32 -186 -99 -219 -196 -26 -79 -26 -103 1 -176 27
-70 100 -148 173 -183 43 -22 64 -25 155 -24 97 0 109 2 159 29 113 63 193
197 177 298 -15 92 -76 175 -165 225 -72 41 -193 53 -281 27z m155 -119 c19
-8 46 -32 62 -57 24 -37 28 -51 26 -110 -1 -70 -18 -114 -56 -152 -17 -17 -34
-21 -77 -22 -97 0 -140 54 -140 178 0 61 4 78 25 110 25 36 71 65 108 66 10 1
33 -5 52 -13z"/>
</g>
</svg>
